<?xml version="1.0" encoding="UTF-8"?>
<svg id="Layer_2" data-name="Layer 2" xmlns="http://www.w3.org/2000/svg" viewBox="0 0 48.54 48.43">
  <defs>
    <style>
      .cls-1 {
        fill: #ffffff;
      }
    </style>
  </defs>
  <g id="Layer_1-2" data-name="Layer 1">
    <path class="cls-1" d="M18.6,43.4c0,3.32,3.17,5.75,6.36,4.84,6.45-1.85,7.45-6.57,7.45-12.94,0-5.4-2.8-10.9-11.9-13.1l-6.9-1.7c-3.41-.8-7.21-2.7-7.21-7.1s3.7-7.7,9.1-7.7c3.01,0,5.8,1.19,7.46,3.19,1.94,2.33,4.72,3.81,7.75,3.81h0C30.41,4.3,23.21,0,15.4,0,6.5,0,0,5.7,0,13.3s5.3,11.2,11.9,12.8l6.71,1.6c4.79,1.2,7.4,3.7,7.4,7.5,0,4.7-.71,8.2-7.41,8.2h0Z"/>
    <path class="cls-1" d="M29.54,0h0c0,3.26,1.99,6.12,4.96,7.48,4.58,2.1,7.64,6.92,7.64,13.52v20.5c0,3.53,2.87,6.4,6.4,6.4h0v-27.2C48.54,7.8,40.84,0,29.54,0Z"/>
  </g>
</svg>