<?xml version="1.0" encoding="UTF-8"?>
<svg id="Layer_2" data-name="Layer 2" xmlns="http://www.w3.org/2000/svg" viewBox="0 0 236.79 59.34">
  <defs>
    <style>
      .cls-1 {
        fill: #231f20;
      }
    </style>
  </defs>
  <g id="Layer_1-2" data-name="Layer 1">
    <path class="cls-1" d="M18.6,45.87c0,3.32,3.17,5.75,6.36,4.84,6.45-1.85,7.45-6.57,7.45-12.94,0-5.4-2.8-10.9-11.9-13.1l-6.9-1.7c-3.41-.8-7.21-2.7-7.21-7.1s3.7-7.7,9.1-7.7c3.01,0,5.8,1.19,7.46,3.19,1.94,2.33,4.72,3.81,7.75,3.81h0c-.3-8.4-7.5-12.7-15.31-12.7C6.5,2.47,0,8.17,0,15.77s5.3,11.2,11.9,12.8l6.71,1.6c4.79,1.2,7.4,3.7,7.4,7.5,0,4.7-.71,8.2-7.41,8.2h0Z"/>
    <path class="cls-1" d="M29.54,2.47h0c0,3.26,1.99,6.12,4.96,7.48,4.58,2.1,7.64,6.92,7.64,13.52v20.5c0,3.53,2.87,6.4,6.4,6.4h0v-27.2c0-12.9-7.7-20.7-19-20.7Z"/>
    <g>
      <path class="cls-1" d="M102.07,0h.31c.67,0,1.21.54,1.21,1.21v42.2c0,.67-.54,1.21-1.21,1.21h-.31c-.67,0-1.21-.54-1.21-1.21v-5.23c-2.35,4.27-7.18,7.18-12.5,7.18-8.23,0-14.91-6.68-14.91-15.22s6.68-15.16,14.91-15.16c5.38,0,10.09,2.91,12.5,7.24V1.21c0-.67.54-1.21,1.21-1.21ZM100.86,30.38c0-7.55-5.75-12.75-12.37-12.75s-12.31,5.57-12.31,12.5,5.57,12.56,12.31,12.56,12.37-5.2,12.37-12.31Z"/>
      <path class="cls-1" d="M114.04,43.4v-26.48c0-.67.54-1.21,1.21-1.21h.31c.67,0,1.21.54,1.21,1.21v26.48c0,.67-.54,1.21-1.21,1.21h-.31c-.67,0-1.21-.54-1.21-1.21Z"/>
      <path class="cls-1" d="M153.67,15.72h.31c.67,0,1.21.54,1.21,1.21v23.79c0,14.29-6.31,18.62-15.53,18.62-4.28,0-8.41-1.74-11.31-5.38-.46-.57-.3-1.43.33-1.8l.22-.13c.5-.3,1.16-.2,1.53.26,2.4,2.97,5.82,4.39,9.24,4.39,7.61,0,12.81-3.59,12.81-15.84v-2.6c-2.35,4.21-7.18,7.12-12.5,7.12-8.23,0-14.91-6.68-14.91-15.22s6.68-15.16,14.91-15.16c5.38,0,10.09,2.91,12.5,7.18v-5.23c0-.67.54-1.21,1.21-1.21ZM152.46,30.38c0-7.55-5.75-12.75-12.37-12.75s-12.31,5.57-12.31,12.5,5.57,12.56,12.31,12.56,12.37-5.2,12.37-12.31Z"/>
      <path class="cls-1" d="M165.64,43.4v-26.48c0-.67.54-1.21,1.21-1.21h.31c.67,0,1.21.54,1.21,1.21v26.48c0,.67-.54,1.21-1.21,1.21h-.31c-.67,0-1.21-.54-1.21-1.21Z"/>
      <path class="cls-1" d="M190.14,16.92h0c0,.67-.54,1.21-1.21,1.21h-4.58c-.67,0-1.21.54-1.21,1.21v24.07c0,.67-.54,1.21-1.21,1.21h-.31c-.67,0-1.21-.54-1.21-1.21v-24.07c0-.67-.54-1.21-1.21-1.21h-2.85c-.67,0-1.21-.54-1.21-1.21h0c0-.67.54-1.21,1.21-1.21h2.85c.67,0,1.21-.54,1.21-1.21V6.16c0-.67.54-1.21,1.21-1.21h.31c.67,0,1.21.54,1.21,1.21v8.35c0,.67.54,1.21,1.21,1.21h4.58c.67,0,1.21.54,1.21,1.21Z"/>
      <path class="cls-1" d="M222.16,15.72h.31c.67,0,1.21.54,1.21,1.21v26.48c0,.67-.54,1.21-1.21,1.21h-.31c-.67,0-1.21-.54-1.21-1.21v-5.54c-2.35,4.45-7.05,7.49-12.56,7.49-8.11,0-14.85-6.74-14.85-15.22s6.62-15.16,14.91-15.16c5.38,0,10.15,2.97,12.5,7.3v-5.35c0-.67.54-1.21,1.21-1.21ZM220.95,30.38c0-7.43-5.75-12.75-12.44-12.75s-12.25,5.69-12.25,12.5,5.51,12.56,12.31,12.56,12.37-5.26,12.37-12.31Z"/>
      <path class="cls-1" d="M234.06,43.4V1.21c0-.67.54-1.21,1.21-1.21h.31c.67,0,1.21.54,1.21,1.21v42.2c0,.67-.54,1.21-1.21,1.21h-.31c-.67,0-1.21-.54-1.21-1.21Z"/>
    </g>
  </g>
</svg>